# xmcd CD database file
#
# Track frame offsets:
#	150
#	16920
#	32920
#	51251
#	69921
#	84842
#	100566
#	119252
#	140671
#	156735
#	174827
#	189476
#
# Disc length: 2766 seconds
#
# Revision: 0
# Processed by: cddbd v1.4PL0 Copyright (c) Steve Scherf et al.
# Submitted via: CDex 1.40Beta9
#
DISCID=960acc0c
DTITLE=Carter and Carter - Every Minute
DYEAR=2003
DGENRE=Country
TTITLE0=Lead Me Home
TTITLE1=Easy Making Love
TTITLE2=Dancing Shoes
TTITLE3=(Make the Most of) Every Minute
TTITLE4=Busy Man with Darren Coggan
TTITLE5=One of Those Days
TTITLE6=Right Kind of Words
TTITLE7=Hello Again
TTITLE8=Is it just us
TTITLE9=Love's Got a Hold of You Now
TTITLE10=Chameleon
TTITLE11=Candlelight and Kisses
EXTD=YEAR: 2003 ID3G: 2
EXTT0=
EXTT1=
EXTT2=
EXTT3=
EXTT4=
EXTT5=
EXTT6=
EXTT7=
EXTT8=
EXTT9=
EXTT10=
EXTT11=
PLAYORDER=
